<?xml version="1.0" encoding="UTF-8" standalone="no"?>
<!-- Created with Inkscape (http://www.inkscape.org/) -->

<svg
   xmlns:dc="http://purl.org/dc/elements/1.1/"
   xmlns:cc="http://creativecommons.org/ns#"
   xmlns:rdf="http://www.w3.org/1999/02/22-rdf-syntax-ns#"
   xmlns:svg="http://www.w3.org/2000/svg"
   xmlns="http://www.w3.org/2000/svg"
   xmlns:xlink="http://www.w3.org/1999/xlink"
   xmlns:sodipodi="http://sodipodi.sourceforge.net/DTD/sodipodi-0.dtd"
   xmlns:inkscape="http://www.inkscape.org/namespaces/inkscape"
   width="744.09448819"
   height="1052.3622047"
   id="svg2"
   version="1.1"
   inkscape:version="0.48.1 r9760"
   sodipodi:docname="ganesh.svg">
  <defs
     id="defs4">
    <linearGradient
       id="linearGradient3965">
      <stop
         style="stop-color:#fcf62a;stop-opacity:1;"
         offset="0"
         id="stop3967" />
      <stop
         style="stop-color:#50f6fd;stop-opacity:0;"
         offset="1"
         id="stop3969" />
    </linearGradient>
    <inkscape:path-effect
       effect="spiro"
       id="path-effect3109"
       is_visible="true" />
    <filter
       inkscape:collect="always"
       id="filter3879"
       x="-0.11202755"
       width="1.2240551"
       y="-0.12919411"
       height="1.2583882">
      <feGaussianBlur
         inkscape:collect="always"
         stdDeviation="21.730246"
         id="feGaussianBlur3881" />
    </filter>
    <filter
       inkscape:collect="always"
       id="filter3915"
       x="-0.21612542"
       width="1.4322508"
       y="-0.11557184"
       height="1.2311437">
      <feGaussianBlur
         inkscape:collect="always"
         stdDeviation="3.6484673"
         id="feGaussianBlur3917" />
    </filter>
    <filter
       inkscape:collect="always"
       id="filter3931">
      <feGaussianBlur
         inkscape:collect="always"
         stdDeviation="5.2732852"
         id="feGaussianBlur3933" />
    </filter>
    <filter
       inkscape:collect="always"
       id="filter3943">
      <feGaussianBlur
         inkscape:collect="always"
         stdDeviation="15.715075"
         id="feGaussianBlur3945" />
    </filter>
    <filter
       inkscape:collect="always"
       id="filter3959"
       x="-0.32235315"
       width="1.6447063"
       y="-0.34289665"
       height="1.6857933">
      <feGaussianBlur
         inkscape:collect="always"
         stdDeviation="4.0197748"
         id="feGaussianBlur3961" />
    </filter>
    <radialGradient
       inkscape:collect="always"
       xlink:href="#linearGradient3965"
       id="radialGradient3773"
       cx="391.42859"
       cy="540.93359"
       fx="391.42859"
       fy="540.93359"
       r="448.3143"
       gradientTransform="matrix(1,0,0,1.3186539,0,-172.37062)"
       gradientUnits="userSpaceOnUse" />
    <filter
       id="filter3775"
       inkscape:label="Inner Glow"
       inkscape:menu="Shadows and Glows"
       inkscape:menu-tooltip="Adds a colorizable glow inside"
       color-interpolation-filters="sRGB">
      <feGaussianBlur
         id="feGaussianBlur3777"
         stdDeviation="10"
         result="result8" />
      <feComposite
         id="feComposite3779"
         in2="result8"
         result="result6"
         in="SourceGraphic"
         operator="in" />
      <feComposite
         id="feComposite3781"
         in2="result6"
         operator="in"
         result="result11" />
      <feFlood
         id="feFlood3783"
         result="result10"
         in="result11"
         flood-opacity="1"
         flood-color="rgb(255,222,85)" />
      <feBlend
         id="feBlend3785"
         in2="result10"
         mode="normal"
         in="result11"
         result="result12" />
      <feComposite
         id="feComposite3787"
         in2="SourceGraphic"
         result="result2"
         operator="in"
         in="result12" />
    </filter>
  </defs>
  <sodipodi:namedview
     id="base"
     pagecolor="#ffffff"
     bordercolor="#666666"
     borderopacity="1.0"
     inkscape:pageopacity="0.0"
     inkscape:pageshadow="2"
     inkscape:zoom="0.35"
     inkscape:cx="-77.525321"
     inkscape:cy="515.54981"
     inkscape:document-units="px"
     inkscape:current-layer="layer1"
     showgrid="false"
     inkscape:window-width="1365"
     inkscape:window-height="691"
     inkscape:window-x="1"
     inkscape:window-y="24"
     inkscape:window-maximized="1" />
  <metadata
     id="metadata7">
    <rdf:RDF>
      <cc:Work
         rdf:about="">
        <dc:format>image/svg+xml</dc:format>
        <dc:type
           rdf:resource="http://purl.org/dc/dcmitype/StillImage" />
        <dc:title></dc:title>
      </cc:Work>
    </rdf:RDF>
  </metadata>
  <g
     inkscape:label="Layer 1"
     inkscape:groupmode="layer"
     id="layer1">
    <rect
       style="color:#000000;fill:url(#radialGradient3773);fill-opacity:1;fill-rule:nonzero;stroke:#ffffff;stroke-width:5.19999980999999956;stroke-linejoin:round;stroke-miterlimit:4;stroke-opacity:1;stroke-dasharray:none;marker:none;visibility:visible;display:inline;overflow:visible;enable-background:accumulate;filter:url(#filter3775)"
       id="rect3963"
       width="891.42859"
       height="1177.1428"
       x="-54.285717"
       y="-47.637817" />
    <path
       style="fill:#000000"
       d="M 237.27862,934.10206 C 220.87426,929.3476 191.33607,916.33054 171.6382,905.17523 75.290941,850.61191 14.536171,738.02633 7.8965714,601.74316 0.99587143,460.1004 41.178311,302.35258 106.00737,216.58091 187.62551,108.59649 311.66977,80.426072 422.28985,144.7532 c 92.24323,53.64073 122.66387,184.25023 60.20992,258.50833 -6.91767,8.22517 -18.65679,17.85083 -26.08698,21.39047 -12.87637,6.13407 -76.31625,16.43414 -79.44525,12.89869 -0.81958,-0.926 3.46492,-8.34069 9.52104,-16.47702 8.60436,-11.55971 14.32982,-14.95038 26.19354,-15.51201 35.97695,-1.70309 59.48529,-18.58146 73.60675,-52.8477 20.4627,-49.65339 8.08479,-116.31618 -29.97956,-161.459 C 428.981,158.84471 408.25986,144.79481 371.25874,133.58673 279.12754,105.67919 193.244,127.83694 133.06287,195.0406 61.961491,274.43884 20.835671,396.81575 16.017771,543.329 c -1.9378,58.926 -1.0795,76.22595 5.5757,112.38 19.0039,103.23841 64.94179,181.10867 134.160469,227.41834 35.19372,23.54576 68.35688,37.78166 100.17208,43.00061 40.03482,6.56727 58.72262,2.48614 75.51905,-16.49212 11.21199,-12.66842 13.20752,-18.114 13.20752,-36.04213 0,-29.22064 -17.50681,-49.6359 -45.97308,-53.61072 -10.80437,-1.50866 -24.34013,-4.45129 -30.07939,-6.5392 -10.26555,-3.73456 -10.4723,-3.38838 -12.72823,21.30873 -1.26124,13.80771 -0.72815,26.19785 1.18469,27.53361 1.91285,1.33574 -0.85064,4.73675 -6.14107,7.55775 -8.75209,4.66685 -9.45953,4.25705 -7.85019,-4.54736 0.97276,-5.32203 2.90657,-25.35696 4.29734,-44.52206 2.43095,-33.49994 2.78636,-34.48597 9.20266,-25.53293 4.85064,6.76846 13.79558,10.31064 32.74084,12.96538 42.60762,5.97048 61.04269,21.47414 65.9207,55.43833 4.57083,31.82557 -13.39137,63.69247 -41.988,74.49136 -19.00714,7.17757 -41.37381,5.98961 -75.96024,-4.03453 z m 169.0221,-252.09051 c -26.36934,-6.97132 -71.04753,-34.38438 -94.44814,-57.95027 -21.22056,-21.37041 -56.19575,-70.86398 -66.5764,-94.21248 -6.03573,-13.57586 -2.26192,-9.32079 17.93341,20.22029 23.63981,34.57962 64.91591,76.98848 92.01337,94.53852 32.2518,20.88836 73.91203,30.94423 103.01471,24.86542 63.00187,-13.1594 92.31139,-52.39826 79.64941,-106.63272 -11.14132,-47.72099 -49.91664,-89.69827 -99.03626,-107.21439 -32.96659,-11.75589 -33.59796,-12.54417 -12.67355,-15.82367 18.10866,-2.83817 22.64712,-1.51383 50.82956,14.83229 46.49775,26.9692 72.58485,66.58608 77.21354,117.25943 4.68071,51.24316 -9.88349,79.69063 -52.44749,102.44277 -19.62017,10.48773 -28.87915,12.69375 -51.73473,12.32606 -15.31073,-0.24623 -34.99258,-2.33935 -43.73743,-4.65125 z M 589.22664,535.79689 c -12.05341,-3.5288 -29.8421,-24.41469 -29.70132,-34.87249 0.0688,-5.09821 5.43734,-21.35015 11.93044,-36.11545 12.55918,-28.55955 15.89441,-63.34482 7.03348,-73.35678 -14.18212,-16.02436 -44.82363,3.26279 -66.98295,42.16209 l -13.0113,22.84042 -15.78187,-8.61541 -15.78186,-8.61546 12.11167,-8.32231 c 6.66144,-4.57724 19.3518,-20.3688 28.20081,-35.09226 20.31098,-33.79435 44.13695,-48.84072 67.12576,-42.39068 8.41995,2.36241 14.38369,6.58778 13.76439,9.75221 -0.60098,3.07106 0.50203,4.47008 2.45115,3.10898 6.78022,-4.73473 16.79722,14.19352 19.05899,36.01431 1.81319,17.49275 0.0832,28.13275 -8.50434,52.30459 -13.36901,37.63062 -11.56146,51.18603 7.36017,55.19684 14.29582,3.03031 38.53728,-6.10042 51.59952,-19.43529 4.14412,-4.23063 12.20066,-17.80221 17.90341,-30.15906 13.19929,-28.6006 13.87877,-70.73735 1.64458,-101.98744 -9.75608,-24.92016 -22.13304,-29.91097 -48.30405,-19.47785 -23.59614,9.40662 -33.87915,8.66102 -46.24032,-3.35274 -11.87871,-11.54489 -15.30227,-39.58005 -6.02146,-49.30901 4.36531,-4.57614 4.89713,-4.1538 2.88833,2.29359 -3.73157,11.97676 3.88093,29.76985 15.23795,35.61661 8.38988,4.31928 13.70919,3.53819 30.97699,-4.54862 37.11585,-17.38199 53.27177,-10.77957 68.33741,27.92722 20.08025,51.59037 13.8738,110.60575 -15.7436,149.70167 -21.44939,28.31393 -64.67489,46.60107 -91.55198,38.73232 z M 227.24186,303.94217 c -3.20111,-19.27986 -1.44764,-22.85472 23.75621,-48.43334 17.78284,-18.04728 18.81271,-18.5656 10.65969,-5.36471 -4.96374,8.03698 -12.61847,16.78567 -17.0105,19.44159 -4.52809,2.73814 -7.04509,7.59783 -5.81348,11.22432 1.19461,3.51752 0.42346,6.3955 -1.71368,6.3955 -2.17981,0 -1.72268,3.91348 1.04129,8.91413 4.07309,7.36931 3.78398,10.20568 -1.66835,16.36621 -6.14259,6.94051 -6.77769,6.35399 -9.25118,-8.5437 z m 432.44318,-37.20559 c -18.1163,-6.05208 -43.95875,-17.28929 -57.42766,-24.97157 -26.56579,-15.15237 -63.57672,-54.16107 -78.06402,-82.27779 -7.85906,-15.25275 -5.27826,-13.28716 19.13902,14.5769 15.52265,17.71383 35.77815,36.53464 45.01223,41.824 9.23413,5.2894 17.68406,10.86199 18.77769,12.38348 1.09362,1.52157 5.56753,3.31137 9.94203,3.97738 4.3745,0.66602 19.58581,2.92777 33.80292,5.02618 14.21711,2.09843 23.61233,4.08105 20.87827,4.40583 -2.73406,0.32486 -4.94362,4.12911 -4.91014,8.45401 0.0521,6.72009 0.62143,6.88344 3.91594,1.12335 2.41794,-4.22748 3.87771,-4.70666 3.91592,-1.28534 0.0319,3.00011 6.73979,10.58271 14.90287,16.85024 18.29681,14.04803 12.37414,14.03081 -29.88507,-0.0867 z m -78.82168,-83.6281 c -1.12648,-2.05947 -0.89371,-5.85508 0.51729,-8.43475 1.41102,-2.57961 0.51958,-7.47556 -1.98096,-10.87995 -3.66658,-4.99185 -2.9632,-5.72193 3.63445,-3.77247 4.49949,1.32946 8.1809,4.20343 8.1809,6.38655 0,2.18312 1.98101,3.96933 4.40229,3.96933 2.42125,0 3.33655,-3.13805 2.03394,-6.97347 -1.44131,-4.24389 -0.72342,-5.8248 1.83407,-4.03889 2.31128,1.61402 3.26373,5.69834 2.11654,9.0763 -1.14723,3.37791 -0.37461,7.33677 1.71727,8.79744 2.09172,1.46067 3.80315,4.2215 3.80315,6.13511 0,4.69653 -23.67572,4.45744 -26.25894,-0.26512 z m 10.35168,-3.74449 c 0,-2.47137 -1.78957,-4.4934 -3.97681,-4.4934 -2.18725,0 -3.97682,2.02203 -3.97682,4.4934 0,2.47137 1.78957,4.4934 3.97682,4.4934 2.18724,0 3.97681,-2.02203 3.97681,-4.4934 z"
       id="path3066"
       inkscape:connector-curvature="0"
       sodipodi:nodetypes="ssssssscssssssssssssssssssssssssssssssssssssssscssscccssscssssssssssssssssssssssssscsssscssccscsccccssssssccsccsssss" />
    <path
       sodipodi:nodetypes="ccsccssssssssssssssscssscccssscssssssssssssssss"
       inkscape:connector-curvature="0"
       id="path3105"
       d="m 479.64262,403.26153 c -6.91767,8.22517 -18.65679,17.85083 -26.08698,21.39047 -80.72482,19.7608 -72.64839,11.8975 -44.41104,-7.22421 24.57316,-16.64038 64.4144,-41.80687 74.28712,-64.71383 -15.47216,-6.78989 6.5462,37.18074 -3.7891,50.54757 z m -76.19905,278.75002 c -26.36934,-6.97132 -71.04753,-34.38438 -94.44814,-57.95027 -21.22056,-21.37041 -56.19575,-70.86398 -66.5764,-94.21248 -6.03573,-13.57586 -2.26192,-9.32079 17.93341,20.22029 23.63981,34.57962 64.91591,76.98848 92.01337,94.53852 32.2518,20.88836 73.91203,30.94423 103.01471,24.86542 63.00187,-13.1594 92.31139,-52.39826 79.64941,-106.63272 -11.14132,-47.72099 -49.91664,-89.69827 -99.03626,-107.21439 -32.96659,-11.75589 -33.59796,-12.54417 -12.67355,-15.82367 18.10866,-2.83817 22.64712,-1.51383 50.82956,14.83229 46.49775,26.9692 72.58485,66.58608 77.21354,117.25943 4.68071,51.24316 -9.88349,79.69063 -52.44749,102.44277 -19.62017,10.48773 -28.87915,12.69375 -51.73473,12.32606 -15.31073,-0.24623 -34.99258,-2.33935 -43.73743,-4.65125 z M 586.36949,535.79689 c -12.05341,-3.5288 -29.8421,-24.41469 -29.70132,-34.87249 0.0688,-5.09821 5.43734,-21.35015 11.93044,-36.11545 12.55918,-28.55955 15.89441,-63.34482 7.03348,-73.35678 -14.18212,-16.02436 -44.82363,3.26279 -66.98295,42.16209 l -13.0113,22.84042 -15.78187,-8.61541 -15.78186,-8.61546 12.11167,-8.32231 c 6.66144,-4.57724 19.3518,-20.3688 28.20081,-35.09226 20.31098,-33.79435 44.13695,-48.84072 67.12576,-42.39068 8.41995,2.36241 14.38369,6.58778 13.76439,9.75221 -0.60098,3.07106 0.50203,4.47008 2.45115,3.10898 6.78022,-4.73473 16.79722,14.19352 19.05899,36.01431 1.81319,17.49275 0.0832,28.13275 -8.50434,52.30459 -13.36901,37.63062 -11.56146,51.18603 7.36017,55.19684 14.29582,3.03031 38.53728,-6.10042 51.59952,-19.43529 4.14412,-4.23063 12.20066,-17.80221 17.90341,-30.15906 13.19929,-28.6006 13.87877,-70.73735 1.64458,-101.98744 -9.75608,-24.92016 -22.13304,-29.91097 -48.30405,-19.47785 -23.59614,9.40662 -33.87915,8.66102 -46.24032,-3.35274 -11.87871,-11.54489 -15.30227,-39.58005 -6.02146,-49.30901 4.36531,-4.57614 4.89713,-4.1538 2.88833,2.29359 -3.73157,11.97676 3.88093,29.76985 15.23795,35.61661 8.38988,4.31928 13.70919,3.53819 30.97699,-4.54862 37.11585,-17.38199 53.27177,-10.77957 68.33742,27.92722 20.08025,51.59037 13.8738,110.60575 -15.74361,149.70167 -21.44939,28.31393 -64.67489,46.60107 -91.55198,38.73232 z"
       style="fill:#1e53dd;fill-opacity:1;filter:url(#filter3879)" />
    <path
       style="fill:none;stroke:#000000;stroke-width:5.19999981;stroke-linecap:butt;stroke-linejoin:miter;stroke-miterlimit:4;stroke-opacity:1;stroke-dasharray:none"
       d="m 242.85715,292.36219 11.42857,-22.85715"
       id="path3107"
       inkscape:path-effect="#path-effect3109"
       inkscape:original-d="m 242.85715,292.36219 11.42857,-22.85715"
       inkscape:connector-curvature="0" />
    <path
       sodipodi:nodetypes="ssssssscsssssssssssssssssssssssscc"
       inkscape:connector-curvature="0"
       id="path3883"
       d="M 240.13576,934.10206 C 223.7314,929.3476 194.19321,916.33054 174.49534,905.17523 78.148091,850.61191 17.393371,738.02633 10.753771,601.74316 3.8529714,460.1004 44.035441,302.35258 108.86451,216.58091 190.48265,108.59649 314.52691,80.426072 425.14699,144.7532 c 92.24323,53.64073 122.66387,184.25023 60.20992,258.50833 -6.91767,8.22517 -18.65679,17.85083 -26.08698,21.39047 -12.87637,6.13407 -76.31625,16.43414 -79.44525,12.89869 -0.81958,-0.926 3.46492,-8.34069 9.52104,-16.47702 8.60436,-11.55971 14.32982,-14.95038 26.19354,-15.51201 35.97695,-1.70309 59.48529,-18.58146 73.60675,-52.8477 20.4627,-49.65339 8.08479,-116.31618 -29.97956,-161.459 C 431.83814,158.84471 411.117,144.79481 374.11588,133.58673 281.98468,105.67919 196.10114,127.83694 135.92001,195.0406 64.818631,274.43884 23.692871,396.81575 18.874871,543.329 c -1.9378,58.926 -1.0794,76.22595 5.5757,112.38 19.00394,103.23841 64.94183,181.10867 134.160509,227.41834 35.19372,23.54576 68.35688,37.78166 100.17208,43.00061 40.03482,6.56727 58.72262,2.48614 75.51905,-16.49212 11.21199,-12.66842 13.20752,-18.114 13.20752,-36.04213 0,-29.22064 -17.50681,-49.6359 -45.97308,-53.61072 -10.80437,-1.50866 -24.34013,-4.45129 -30.07939,-6.5392 -10.26555,-3.73456 -10.4723,-3.38838 -12.72823,21.30873 -1.26124,13.80771 -0.72815,26.19785 1.18469,27.53361 1.91285,1.33574 -0.85064,4.73675 -6.14107,7.55775 -8.75209,4.66685 -9.45953,4.25705 -7.85019,-4.54736 0.97276,-5.32203 2.90657,-25.35696 4.29734,-44.52206 2.43095,-33.49994 2.78636,-34.48597 9.20266,-25.53293 4.85064,6.76846 13.79558,10.31064 32.74084,12.96538 42.60762,5.97048 61.04269,21.47414 65.9207,55.43833 4.57083,31.82557 -13.39137,63.69247 -41.988,74.49136 -19.00714,7.17757 -41.37381,5.98961 -75.96024,-4.03453 z M 429.03441,439.80225 c 277.78659,412.18282 138.89329,206.09141 0,0 z"
       style="fill:#91f845;fill-opacity:1;filter:url(#filter3943)" />
    <path
       style="fill:#50f6fd;fill-opacity:1;filter:url(#filter3959)"
       d="m 578.0062,180.25134 c -1.1265,-2.05947 -0.8937,-5.85508 0.5173,-8.43475 1.411,-2.57961 0.5196,-7.47556 -1.981,-10.87995 -3.6665,-4.99185 -2.9632,-5.72193 3.6345,-3.77247 4.4995,1.32946 8.1809,4.20343 8.1809,6.38655 0,2.18312 1.981,3.96933 4.4023,3.96933 2.4212,0 3.3365,-3.13805 2.0339,-6.97347 -1.4413,-4.24389 -0.7234,-5.8248 1.8341,-4.03889 2.3113,1.61402 3.2637,5.69834 2.1165,9.0763 -1.1472,3.37791 -0.3746,7.33677 1.7173,8.79744 2.0917,1.46067 3.8032,4.2215 3.8032,6.13511 0,4.69653 -23.6758,4.45744 -26.259,-0.26512 z m 10.3517,-3.74449 c 0,-2.47137 -1.7896,-4.4934 -3.9768,-4.4934 -2.1873,0 -3.9768,2.02203 -3.9768,4.4934 0,2.47137 1.7895,4.4934 3.9768,4.4934 2.1872,0 3.9768,-2.02203 3.9768,-4.4934 z"
       id="path3885"
       inkscape:connector-curvature="0"
       sodipodi:nodetypes="ccssssssccsccsssss" />
    <path
       sodipodi:nodetypes="csssscssccscscc"
       inkscape:connector-curvature="0"
       id="path3887"
       d="m 659.68503,266.73658 c -18.1163,-6.05208 -43.9588,-17.28929 -57.4277,-24.97157 -26.5658,-15.15237 -63.5767,-54.16107 -78.064,-82.27779 -7.859,-15.25275 -5.2782,-13.28716 19.139,14.5769 15.5227,17.71383 35.7782,36.53464 45.0123,41.824 9.2341,5.2894 17.684,10.86199 18.7777,12.38348 1.0936,1.52157 5.5675,3.31137 9.942,3.97738 4.3745,0.66602 19.5858,2.92777 33.8029,5.02618 14.2171,2.09843 23.6123,4.08105 20.8783,4.40583 -2.7341,0.32486 -4.9436,4.12911 -4.9102,8.45401 0.052,6.72009 0.6215,6.88344 3.916,1.12335 2.4179,-4.22748 3.8777,-4.70666 3.9159,-1.28534 0.032,3.00011 6.7398,10.58271 14.9029,16.85024 18.2968,14.04803 12.3741,14.03081 -29.8851,-0.0867 z"
       style="fill:#fcfcfc;fill-opacity:1;filter:url(#filter3931)" />
    <path
       style="fill:#71cd6b;fill-opacity:1;filter:url(#filter3915)"
       d="m 227.24182,303.94217 c -3.2011,-19.27986 -1.4476,-22.85472 23.7562,-48.43334 17.7828,-18.04728 18.8127,-18.5656 10.6597,-5.36471 -4.9637,8.03698 -12.6185,16.78567 -17.0105,19.44159 -4.5281,2.73814 -7.0451,7.59783 -5.8135,11.22432 1.1946,3.51752 0.4235,6.3955 -1.7137,6.3955 -2.1798,0 -1.7226,3.91348 1.0413,8.91413 4.0731,7.36931 3.784,10.20568 -1.6683,16.36621 -6.1426,6.94051 -6.7777,6.35399 -9.2512,-8.5437 z"
       id="path3889"
       inkscape:connector-curvature="0"
       sodipodi:nodetypes="sssssssss" />
  </g>
</svg>
